G04 #@! TF.GenerationSoftware,KiCad,Pcbnew,(6.0.2-0)*
G04 #@! TF.CreationDate,2022-03-01T18:59:46+01:00*
G04 #@! TF.ProjectId,HelloWeather,48656c6c-6f57-4656-9174-6865722e6b69,rev?*
G04 #@! TF.SameCoordinates,Original*
G04 #@! TF.FileFunction,Copper,L2,Bot*
G04 #@! TF.FilePolarity,Positive*
%FSLAX46Y46*%
G04 Gerber Fmt 4.6, Leading zero omitted, Abs format (unit mm)*
G04 Created by KiCad (PCBNEW (6.0.2-0)) date 2022-03-01 18:59:46*
%MOMM*%
%LPD*%
G01*
G04 APERTURE LIST*
G04 Aperture macros list*
%AMRoundRect*
0 Rectangle with rounded corners*
0 $1 Rounding radius*
0 $2 $3 $4 $5 $6 $7 $8 $9 X,Y pos of 4 corners*
0 Add a 4 corners polygon primitive as box body*
4,1,4,$2,$3,$4,$5,$6,$7,$8,$9,$2,$3,0*
0 Add four circle primitives for the rounded corners*
1,1,$1+$1,$2,$3*
1,1,$1+$1,$4,$5*
1,1,$1+$1,$6,$7*
1,1,$1+$1,$8,$9*
0 Add four rect primitives between the rounded corners*
20,1,$1+$1,$2,$3,$4,$5,0*
20,1,$1+$1,$4,$5,$6,$7,0*
20,1,$1+$1,$6,$7,$8,$9,0*
20,1,$1+$1,$8,$9,$2,$3,0*%
G04 Aperture macros list end*
G04 #@! TA.AperFunction,ComponentPad*
%ADD10RoundRect,0.250000X0.750000X-0.600000X0.750000X0.600000X-0.750000X0.600000X-0.750000X-0.600000X0*%
G04 #@! TD*
G04 #@! TA.AperFunction,ComponentPad*
%ADD11O,2.000000X1.700000*%
G04 #@! TD*
G04 #@! TA.AperFunction,SMDPad,CuDef*
%ADD12RoundRect,0.150000X-0.150000X0.825000X-0.150000X-0.825000X0.150000X-0.825000X0.150000X0.825000X0*%
G04 #@! TD*
G04 #@! TA.AperFunction,ComponentPad*
%ADD13R,1.700000X1.700000*%
G04 #@! TD*
G04 #@! TA.AperFunction,ComponentPad*
%ADD14O,1.700000X1.700000*%
G04 #@! TD*
G04 #@! TA.AperFunction,ComponentPad*
%ADD15C,1.524000*%
G04 #@! TD*
G04 #@! TA.AperFunction,ViaPad*
%ADD16C,0.800000*%
G04 #@! TD*
G04 #@! TA.AperFunction,Conductor*
%ADD17C,0.250000*%
G04 #@! TD*
G04 APERTURE END LIST*
D10*
X60500000Y-140000000D03*
D11*
X60500000Y-137500000D03*
D10*
X67500000Y-140000000D03*
D11*
X67500000Y-137500000D03*
D12*
X94845000Y-100025000D03*
X96115000Y-100025000D03*
X97385000Y-100025000D03*
X98655000Y-100025000D03*
X98655000Y-104975000D03*
X97385000Y-104975000D03*
X96115000Y-104975000D03*
X94845000Y-104975000D03*
D13*
X60000000Y-131250000D03*
D14*
X60000000Y-128710000D03*
X60000000Y-126170000D03*
X60000000Y-123630000D03*
X60000000Y-121090000D03*
X60000000Y-118550000D03*
D15*
X107930000Y-128515000D03*
X85070000Y-142485000D03*
X107930000Y-142485000D03*
X85070000Y-139945000D03*
X85070000Y-131055000D03*
X85070000Y-128515000D03*
X88100000Y-120695000D03*
X85560000Y-120695000D03*
X83020000Y-120695000D03*
X80480000Y-120695000D03*
X77940000Y-120695000D03*
X75400000Y-120695000D03*
D16*
X99750000Y-98000000D03*
X90000000Y-102250000D03*
X95250000Y-126000000D03*
X72750000Y-113750000D03*
X91500000Y-119250000D03*
X91500000Y-126750000D03*
X100000000Y-103250000D03*
X106750000Y-107500000D03*
X102000000Y-104250000D03*
X104000000Y-124500000D03*
X79000000Y-126500000D03*
X79000000Y-125250000D03*
X96000000Y-137500000D03*
X96000000Y-122500000D03*
D17*
X98655000Y-98095000D02*
X98750000Y-98000000D01*
X98750000Y-98000000D02*
X99750000Y-98000000D01*
X98655000Y-100025000D02*
X98655000Y-98095000D01*
X85070000Y-139945000D02*
X81055000Y-139945000D01*
X60500000Y-141250000D02*
X60500000Y-140000000D01*
X61250000Y-142000000D02*
X60500000Y-141250000D01*
X79000000Y-142000000D02*
X61250000Y-142000000D01*
X81055000Y-139945000D02*
X79000000Y-142000000D01*
X65195000Y-131055000D02*
X60500000Y-135750000D01*
X60500000Y-135750000D02*
X60500000Y-137500000D01*
X85070000Y-131055000D02*
X65195000Y-131055000D01*
X94845000Y-104975000D02*
X96115000Y-104975000D01*
X96115000Y-104975000D02*
X96115000Y-103135000D01*
X60000000Y-123630000D02*
X85165000Y-123630000D01*
X94845000Y-104975000D02*
X92725000Y-104975000D01*
X96115000Y-103135000D02*
X97385000Y-101865000D01*
X85165000Y-123630000D02*
X88100000Y-120695000D01*
X97385000Y-101865000D02*
X97385000Y-100025000D01*
X92725000Y-104975000D02*
X90000000Y-102250000D01*
X90250000Y-113750000D02*
X95250000Y-118750000D01*
X72750000Y-113750000D02*
X90250000Y-113750000D01*
X95250000Y-118750000D02*
X95250000Y-126000000D01*
X91500000Y-119250000D02*
X91500000Y-126750000D01*
X97385000Y-104975000D02*
X97385000Y-103865000D01*
X98000000Y-103250000D02*
X100000000Y-103250000D01*
X97385000Y-103865000D02*
X98000000Y-103250000D01*
X106000000Y-97250000D02*
X106750000Y-98000000D01*
X106750000Y-98000000D02*
X106750000Y-107500000D01*
X96115000Y-100025000D02*
X96115000Y-97885000D01*
X96115000Y-97885000D02*
X96750000Y-97250000D01*
X96750000Y-97250000D02*
X106000000Y-97250000D01*
X101275000Y-104975000D02*
X102000000Y-104250000D01*
X98655000Y-104975000D02*
X101275000Y-104975000D01*
X94845000Y-97405000D02*
X96250000Y-96000000D01*
X107750000Y-123750000D02*
X107000000Y-124500000D01*
X108000000Y-123500000D02*
X107750000Y-123750000D01*
X94845000Y-100025000D02*
X94845000Y-97405000D01*
X106000000Y-96000000D02*
X106750000Y-96000000D01*
X106750000Y-96000000D02*
X108000000Y-97250000D01*
X107000000Y-124500000D02*
X104000000Y-124500000D01*
X108000000Y-97250000D02*
X108000000Y-123500000D01*
X96250000Y-96000000D02*
X106000000Y-96000000D01*
X64250000Y-126500000D02*
X62040000Y-128710000D01*
X62040000Y-128710000D02*
X60000000Y-128710000D01*
X79000000Y-126500000D02*
X64250000Y-126500000D01*
X60920000Y-125250000D02*
X60000000Y-126170000D01*
X79000000Y-125250000D02*
X60920000Y-125250000D01*
X68250000Y-137500000D02*
X67500000Y-137500000D01*
X107930000Y-128515000D02*
X107930000Y-136570000D01*
X106000000Y-138500000D02*
X69250000Y-138500000D01*
X69250000Y-138500000D02*
X68250000Y-137500000D01*
X107930000Y-136570000D02*
X106000000Y-138500000D01*
X96000000Y-137500000D02*
X96000000Y-122500000D01*
M02*
