M48
INCH,TZ
T1C0.0157
T2C0.0300
T3C0.0394
%
G90
G05
T1
X28642Y-44783
X31102Y-49311
X31102Y-49803
X35433Y-40256
X36024Y-46949
X36024Y-49902
X37500Y-49606
X37795Y-48228
X37795Y-54134
X39272Y-38583
X39370Y-40650
X40157Y-41043
X40945Y-49016
X42028Y-42323
T2
X29685Y-47518
X30685Y-47518
X31685Y-47518
X32685Y-47518
X33492Y-50596
X33492Y-51596
X33492Y-55096
X33492Y-56096
X33685Y-47518
X34685Y-47518
X42492Y-50596
X42492Y-56096
T3
X23622Y-46673
X23622Y-47673
X23622Y-48673
X23622Y-49673
X23622Y-50673
X23622Y-51673
X23819Y-54134
X23819Y-55118
X26575Y-54134
X26575Y-55118
T0
M30
