G04 #@! TF.GenerationSoftware,KiCad,Pcbnew,(6.0.2-0)*
G04 #@! TF.CreationDate,2022-03-01T18:59:47+01:00*
G04 #@! TF.ProjectId,HelloWeather,48656c6c-6f57-4656-9174-6865722e6b69,rev?*
G04 #@! TF.SameCoordinates,Original*
G04 #@! TF.FileFunction,Soldermask,Top*
G04 #@! TF.FilePolarity,Negative*
%FSLAX46Y46*%
G04 Gerber Fmt 4.6, Leading zero omitted, Abs format (unit mm)*
G04 Created by KiCad (PCBNEW (6.0.2-0)) date 2022-03-01 18:59:47*
%MOMM*%
%LPD*%
G01*
G04 APERTURE LIST*
G04 Aperture macros list*
%AMRoundRect*
0 Rectangle with rounded corners*
0 $1 Rounding radius*
0 $2 $3 $4 $5 $6 $7 $8 $9 X,Y pos of 4 corners*
0 Add a 4 corners polygon primitive as box body*
4,1,4,$2,$3,$4,$5,$6,$7,$8,$9,$2,$3,0*
0 Add four circle primitives for the rounded corners*
1,1,$1+$1,$2,$3*
1,1,$1+$1,$4,$5*
1,1,$1+$1,$6,$7*
1,1,$1+$1,$8,$9*
0 Add four rect primitives between the rounded corners*
20,1,$1+$1,$2,$3,$4,$5,0*
20,1,$1+$1,$4,$5,$6,$7,0*
20,1,$1+$1,$6,$7,$8,$9,0*
20,1,$1+$1,$8,$9,$2,$3,0*%
G04 Aperture macros list end*
%ADD10C,0.300000*%
%ADD11RoundRect,0.250000X0.350000X0.450000X-0.350000X0.450000X-0.350000X-0.450000X0.350000X-0.450000X0*%
%ADD12RoundRect,0.250000X0.475000X-0.337500X0.475000X0.337500X-0.475000X0.337500X-0.475000X-0.337500X0*%
%ADD13R,0.550000X1.600000*%
%ADD14R,1.600000X0.550000*%
%ADD15R,0.400000X3.200000*%
%ADD16R,1.000000X1.000000*%
%ADD17R,2.200000X1.050000*%
%ADD18RoundRect,0.250000X-0.475000X0.337500X-0.475000X-0.337500X0.475000X-0.337500X0.475000X0.337500X0*%
%ADD19RoundRect,0.150000X-0.825000X-0.150000X0.825000X-0.150000X0.825000X0.150000X-0.825000X0.150000X0*%
%ADD20RoundRect,0.250000X-0.350000X-0.450000X0.350000X-0.450000X0.350000X0.450000X-0.350000X0.450000X0*%
%ADD21RoundRect,0.250000X-0.337500X-0.475000X0.337500X-0.475000X0.337500X0.475000X-0.337500X0.475000X0*%
%ADD22RoundRect,0.250000X0.337500X0.475000X-0.337500X0.475000X-0.337500X-0.475000X0.337500X-0.475000X0*%
%ADD23RoundRect,0.250000X0.750000X-0.600000X0.750000X0.600000X-0.750000X0.600000X-0.750000X-0.600000X0*%
%ADD24O,2.000000X1.700000*%
%ADD25RoundRect,0.150000X-0.587500X-0.150000X0.587500X-0.150000X0.587500X0.150000X-0.587500X0.150000X0*%
%ADD26RoundRect,0.250000X0.450000X-0.350000X0.450000X0.350000X-0.450000X0.350000X-0.450000X-0.350000X0*%
%ADD27RoundRect,0.250000X-0.325000X-0.450000X0.325000X-0.450000X0.325000X0.450000X-0.325000X0.450000X0*%
%ADD28R,2.000000X1.000000*%
%ADD29R,1.900000X0.800000*%
%ADD30R,1.800000X1.750000*%
%ADD31RoundRect,0.250000X-0.450000X0.350000X-0.450000X-0.350000X0.450000X-0.350000X0.450000X0.350000X0*%
%ADD32R,1.700000X1.700000*%
%ADD33O,1.700000X1.700000*%
%ADD34C,1.524000*%
G04 APERTURE END LIST*
D10*
X62964285Y-96763571D02*
X62964285Y-95263571D01*
X62964285Y-95977857D02*
X63821428Y-95977857D01*
X63821428Y-96763571D02*
X63821428Y-95263571D01*
X65107142Y-96692142D02*
X64964285Y-96763571D01*
X64678571Y-96763571D01*
X64535714Y-96692142D01*
X64464285Y-96549285D01*
X64464285Y-95977857D01*
X64535714Y-95835000D01*
X64678571Y-95763571D01*
X64964285Y-95763571D01*
X65107142Y-95835000D01*
X65178571Y-95977857D01*
X65178571Y-96120714D01*
X64464285Y-96263571D01*
X66035714Y-96763571D02*
X65892857Y-96692142D01*
X65821428Y-96549285D01*
X65821428Y-95263571D01*
X66821428Y-96763571D02*
X66678571Y-96692142D01*
X66607142Y-96549285D01*
X66607142Y-95263571D01*
X67607142Y-96763571D02*
X67464285Y-96692142D01*
X67392857Y-96620714D01*
X67321428Y-96477857D01*
X67321428Y-96049285D01*
X67392857Y-95906428D01*
X67464285Y-95835000D01*
X67607142Y-95763571D01*
X67821428Y-95763571D01*
X67964285Y-95835000D01*
X68035714Y-95906428D01*
X68107142Y-96049285D01*
X68107142Y-96477857D01*
X68035714Y-96620714D01*
X67964285Y-96692142D01*
X67821428Y-96763571D01*
X67607142Y-96763571D01*
X60750000Y-97678571D02*
X61107142Y-99178571D01*
X61392857Y-98107142D01*
X61678571Y-99178571D01*
X62035714Y-97678571D01*
X63178571Y-99107142D02*
X63035714Y-99178571D01*
X62750000Y-99178571D01*
X62607142Y-99107142D01*
X62535714Y-98964285D01*
X62535714Y-98392857D01*
X62607142Y-98250000D01*
X62750000Y-98178571D01*
X63035714Y-98178571D01*
X63178571Y-98250000D01*
X63250000Y-98392857D01*
X63250000Y-98535714D01*
X62535714Y-98678571D01*
X64535714Y-99178571D02*
X64535714Y-98392857D01*
X64464285Y-98250000D01*
X64321428Y-98178571D01*
X64035714Y-98178571D01*
X63892857Y-98250000D01*
X64535714Y-99107142D02*
X64392857Y-99178571D01*
X64035714Y-99178571D01*
X63892857Y-99107142D01*
X63821428Y-98964285D01*
X63821428Y-98821428D01*
X63892857Y-98678571D01*
X64035714Y-98607142D01*
X64392857Y-98607142D01*
X64535714Y-98535714D01*
X65035714Y-98178571D02*
X65607142Y-98178571D01*
X65250000Y-97678571D02*
X65250000Y-98964285D01*
X65321428Y-99107142D01*
X65464285Y-99178571D01*
X65607142Y-99178571D01*
X66107142Y-99178571D02*
X66107142Y-97678571D01*
X66750000Y-99178571D02*
X66750000Y-98392857D01*
X66678571Y-98250000D01*
X66535714Y-98178571D01*
X66321428Y-98178571D01*
X66178571Y-98250000D01*
X66107142Y-98321428D01*
X68035714Y-99107142D02*
X67892857Y-99178571D01*
X67607142Y-99178571D01*
X67464285Y-99107142D01*
X67392857Y-98964285D01*
X67392857Y-98392857D01*
X67464285Y-98250000D01*
X67607142Y-98178571D01*
X67892857Y-98178571D01*
X68035714Y-98250000D01*
X68107142Y-98392857D01*
X68107142Y-98535714D01*
X67392857Y-98678571D01*
X68750000Y-99178571D02*
X68750000Y-98178571D01*
X68750000Y-98464285D02*
X68821428Y-98321428D01*
X68892857Y-98250000D01*
X69035714Y-98178571D01*
X69178571Y-98178571D01*
X63214285Y-100093571D02*
X63714285Y-101593571D01*
X64214285Y-100093571D01*
X65000000Y-100093571D02*
X65142857Y-100093571D01*
X65285714Y-100165000D01*
X65357142Y-100236428D01*
X65428571Y-100379285D01*
X65500000Y-100665000D01*
X65500000Y-101022142D01*
X65428571Y-101307857D01*
X65357142Y-101450714D01*
X65285714Y-101522142D01*
X65142857Y-101593571D01*
X65000000Y-101593571D01*
X64857142Y-101522142D01*
X64785714Y-101450714D01*
X64714285Y-101307857D01*
X64642857Y-101022142D01*
X64642857Y-100665000D01*
X64714285Y-100379285D01*
X64785714Y-100236428D01*
X64857142Y-100165000D01*
X65000000Y-100093571D01*
X66142857Y-101450714D02*
X66214285Y-101522142D01*
X66142857Y-101593571D01*
X66071428Y-101522142D01*
X66142857Y-101450714D01*
X66142857Y-101593571D01*
X67642857Y-101593571D02*
X66785714Y-101593571D01*
X67214285Y-101593571D02*
X67214285Y-100093571D01*
X67071428Y-100307857D01*
X66928571Y-100450714D01*
X66785714Y-100522142D01*
D11*
X93500000Y-141750000D03*
X91500000Y-141750000D03*
D12*
X71250000Y-110287500D03*
X71250000Y-108212500D03*
D13*
X95200000Y-128250000D03*
X96000000Y-128250000D03*
X96800000Y-128250000D03*
X97600000Y-128250000D03*
X98400000Y-128250000D03*
X99200000Y-128250000D03*
X100000000Y-128250000D03*
X100800000Y-128250000D03*
D14*
X102250000Y-126800000D03*
X102250000Y-126000000D03*
X102250000Y-125200000D03*
X102250000Y-124400000D03*
X102250000Y-123600000D03*
X102250000Y-122800000D03*
X102250000Y-122000000D03*
X102250000Y-121200000D03*
D13*
X100800000Y-119750000D03*
X100000000Y-119750000D03*
X99200000Y-119750000D03*
X98400000Y-119750000D03*
X97600000Y-119750000D03*
X96800000Y-119750000D03*
X96000000Y-119750000D03*
X95200000Y-119750000D03*
D14*
X93750000Y-121200000D03*
X93750000Y-122000000D03*
X93750000Y-122800000D03*
X93750000Y-123600000D03*
X93750000Y-124400000D03*
X93750000Y-125200000D03*
X93750000Y-126000000D03*
X93750000Y-126800000D03*
D15*
X101700000Y-133000000D03*
X100500000Y-133000000D03*
X99300000Y-133000000D03*
D16*
X83000000Y-95500000D03*
X80000000Y-95500000D03*
D17*
X81500000Y-94025000D03*
X81500000Y-96975000D03*
D18*
X68250000Y-126962500D03*
X68250000Y-129037500D03*
D19*
X66250000Y-112440000D03*
X66250000Y-113710000D03*
X66250000Y-114980000D03*
X66250000Y-116250000D03*
X71200000Y-116250000D03*
X71200000Y-114980000D03*
X71200000Y-113710000D03*
X71200000Y-112440000D03*
D20*
X91500000Y-139250000D03*
X93500000Y-139250000D03*
D21*
X62712500Y-127000000D03*
X64787500Y-127000000D03*
D11*
X107225000Y-134262500D03*
X105225000Y-134262500D03*
D22*
X77037500Y-133000000D03*
X74962500Y-133000000D03*
X59262500Y-111345000D03*
X57187500Y-111345000D03*
D23*
X60500000Y-140000000D03*
D24*
X60500000Y-137500000D03*
D25*
X91562500Y-134800000D03*
X91562500Y-136700000D03*
X93437500Y-135750000D03*
D21*
X74962500Y-142000000D03*
X77037500Y-142000000D03*
D22*
X77037500Y-129000000D03*
X74962500Y-129000000D03*
D26*
X77000000Y-118250000D03*
X77000000Y-116250000D03*
D23*
X67500000Y-140000000D03*
D24*
X67500000Y-137500000D03*
D27*
X105200000Y-137262500D03*
X107250000Y-137262500D03*
D22*
X59262500Y-115345000D03*
X57187500Y-115345000D03*
D28*
X104000000Y-108250000D03*
X104000000Y-106250000D03*
X104000000Y-104250000D03*
X104000000Y-102250000D03*
X104000000Y-100250000D03*
X104000000Y-98250000D03*
X104000000Y-96250000D03*
X104000000Y-94250000D03*
X88000000Y-94250000D03*
X88000000Y-96250000D03*
X88000000Y-98250000D03*
X88000000Y-100250000D03*
X88000000Y-102250000D03*
X88000000Y-104250000D03*
X88000000Y-106250000D03*
X88000000Y-108250000D03*
D29*
X74500000Y-136050000D03*
X74500000Y-137950000D03*
X77500000Y-137000000D03*
D26*
X74750000Y-115000000D03*
X74750000Y-113000000D03*
D18*
X91500000Y-130712500D03*
X91500000Y-132787500D03*
D30*
X62250000Y-114970000D03*
X62250000Y-111720000D03*
D21*
X96212500Y-116000000D03*
X98287500Y-116000000D03*
D31*
X70750000Y-127000000D03*
X70750000Y-129000000D03*
D26*
X96000000Y-135750000D03*
X96000000Y-133750000D03*
D32*
X60000000Y-131250000D03*
D33*
X60000000Y-128710000D03*
X60000000Y-126170000D03*
X60000000Y-123630000D03*
X60000000Y-121090000D03*
X60000000Y-118550000D03*
D34*
X107930000Y-128515000D03*
X85070000Y-142485000D03*
X107930000Y-142485000D03*
X85070000Y-139945000D03*
X85070000Y-131055000D03*
X85070000Y-128515000D03*
X88100000Y-120695000D03*
X85560000Y-120695000D03*
X83020000Y-120695000D03*
X80480000Y-120695000D03*
X77940000Y-120695000D03*
X75400000Y-120695000D03*
M02*
