G04 #@! TF.GenerationSoftware,KiCad,Pcbnew,(6.0.2-0)*
G04 #@! TF.CreationDate,2022-03-01T18:59:47+01:00*
G04 #@! TF.ProjectId,HelloWeather,48656c6c-6f57-4656-9174-6865722e6b69,rev?*
G04 #@! TF.SameCoordinates,Original*
G04 #@! TF.FileFunction,Legend,Top*
G04 #@! TF.FilePolarity,Positive*
%FSLAX46Y46*%
G04 Gerber Fmt 4.6, Leading zero omitted, Abs format (unit mm)*
G04 Created by KiCad (PCBNEW (6.0.2-0)) date 2022-03-01 18:59:47*
%MOMM*%
%LPD*%
G01*
G04 APERTURE LIST*
%ADD10C,0.200000*%
%ADD11C,0.150000*%
%ADD12C,0.120000*%
G04 APERTURE END LIST*
D10*
X56914285Y-139542857D02*
X56914285Y-140457142D01*
D11*
X66988095Y-144404761D02*
X67130952Y-144452380D01*
X67369047Y-144452380D01*
X67464285Y-144404761D01*
X67511904Y-144357142D01*
X67559523Y-144261904D01*
X67559523Y-144166666D01*
X67511904Y-144071428D01*
X67464285Y-144023809D01*
X67369047Y-143976190D01*
X67178571Y-143928571D01*
X67083333Y-143880952D01*
X67035714Y-143833333D01*
X66988095Y-143738095D01*
X66988095Y-143642857D01*
X67035714Y-143547619D01*
X67083333Y-143500000D01*
X67178571Y-143452380D01*
X67416666Y-143452380D01*
X67559523Y-143500000D01*
X68130952Y-144452380D02*
X68035714Y-144404761D01*
X67988095Y-144357142D01*
X67940476Y-144261904D01*
X67940476Y-143976190D01*
X67988095Y-143880952D01*
X68035714Y-143833333D01*
X68130952Y-143785714D01*
X68273809Y-143785714D01*
X68369047Y-143833333D01*
X68416666Y-143880952D01*
X68464285Y-143976190D01*
X68464285Y-144261904D01*
X68416666Y-144357142D01*
X68369047Y-144404761D01*
X68273809Y-144452380D01*
X68130952Y-144452380D01*
X69035714Y-144452380D02*
X68940476Y-144404761D01*
X68892857Y-144309523D01*
X68892857Y-143452380D01*
X69845238Y-144452380D02*
X69845238Y-143928571D01*
X69797619Y-143833333D01*
X69702380Y-143785714D01*
X69511904Y-143785714D01*
X69416666Y-143833333D01*
X69845238Y-144404761D02*
X69750000Y-144452380D01*
X69511904Y-144452380D01*
X69416666Y-144404761D01*
X69369047Y-144309523D01*
X69369047Y-144214285D01*
X69416666Y-144119047D01*
X69511904Y-144071428D01*
X69750000Y-144071428D01*
X69845238Y-144023809D01*
X70321428Y-144452380D02*
X70321428Y-143785714D01*
X70321428Y-143976190D02*
X70369047Y-143880952D01*
X70416666Y-143833333D01*
X70511904Y-143785714D01*
X70607142Y-143785714D01*
X60047619Y-143928571D02*
X60190476Y-143976190D01*
X60238095Y-144023809D01*
X60285714Y-144119047D01*
X60285714Y-144261904D01*
X60238095Y-144357142D01*
X60190476Y-144404761D01*
X60095238Y-144452380D01*
X59714285Y-144452380D01*
X59714285Y-143452380D01*
X60047619Y-143452380D01*
X60142857Y-143500000D01*
X60190476Y-143547619D01*
X60238095Y-143642857D01*
X60238095Y-143738095D01*
X60190476Y-143833333D01*
X60142857Y-143880952D01*
X60047619Y-143928571D01*
X59714285Y-143928571D01*
X61142857Y-144452380D02*
X61142857Y-143928571D01*
X61095238Y-143833333D01*
X61000000Y-143785714D01*
X60809523Y-143785714D01*
X60714285Y-143833333D01*
X61142857Y-144404761D02*
X61047619Y-144452380D01*
X60809523Y-144452380D01*
X60714285Y-144404761D01*
X60666666Y-144309523D01*
X60666666Y-144214285D01*
X60714285Y-144119047D01*
X60809523Y-144071428D01*
X61047619Y-144071428D01*
X61142857Y-144023809D01*
X61476190Y-143785714D02*
X61857142Y-143785714D01*
X61619047Y-143452380D02*
X61619047Y-144309523D01*
X61666666Y-144404761D01*
X61761904Y-144452380D01*
X61857142Y-144452380D01*
X62047619Y-143785714D02*
X62428571Y-143785714D01*
X62190476Y-143452380D02*
X62190476Y-144309523D01*
X62238095Y-144404761D01*
X62333333Y-144452380D01*
X62428571Y-144452380D01*
D10*
X56914285Y-137042857D02*
X56914285Y-137957142D01*
X56457142Y-137500000D02*
X57371428Y-137500000D01*
D11*
X89333333Y-142202380D02*
X89000000Y-141726190D01*
X88761904Y-142202380D02*
X88761904Y-141202380D01*
X89142857Y-141202380D01*
X89238095Y-141250000D01*
X89285714Y-141297619D01*
X89333333Y-141392857D01*
X89333333Y-141535714D01*
X89285714Y-141630952D01*
X89238095Y-141678571D01*
X89142857Y-141726190D01*
X88761904Y-141726190D01*
X89666666Y-141202380D02*
X90333333Y-141202380D01*
X89904761Y-142202380D01*
X71083333Y-106857142D02*
X71035714Y-106904761D01*
X70892857Y-106952380D01*
X70797619Y-106952380D01*
X70654761Y-106904761D01*
X70559523Y-106809523D01*
X70511904Y-106714285D01*
X70464285Y-106523809D01*
X70464285Y-106380952D01*
X70511904Y-106190476D01*
X70559523Y-106095238D01*
X70654761Y-106000000D01*
X70797619Y-105952380D01*
X70892857Y-105952380D01*
X71035714Y-106000000D01*
X71083333Y-106047619D01*
X72035714Y-106952380D02*
X71464285Y-106952380D01*
X71750000Y-106952380D02*
X71750000Y-105952380D01*
X71654761Y-106095238D01*
X71559523Y-106190476D01*
X71464285Y-106238095D01*
X91402380Y-124761904D02*
X92211904Y-124761904D01*
X92307142Y-124714285D01*
X92354761Y-124666666D01*
X92402380Y-124571428D01*
X92402380Y-124380952D01*
X92354761Y-124285714D01*
X92307142Y-124238095D01*
X92211904Y-124190476D01*
X91402380Y-124190476D01*
X91402380Y-123238095D02*
X91402380Y-123714285D01*
X91878571Y-123761904D01*
X91830952Y-123714285D01*
X91783333Y-123619047D01*
X91783333Y-123380952D01*
X91830952Y-123285714D01*
X91878571Y-123238095D01*
X91973809Y-123190476D01*
X92211904Y-123190476D01*
X92307142Y-123238095D01*
X92354761Y-123285714D01*
X92402380Y-123380952D01*
X92402380Y-123619047D01*
X92354761Y-123714285D01*
X92307142Y-123761904D01*
X100023809Y-135426190D02*
X100023809Y-135902380D01*
X99690476Y-134902380D02*
X100023809Y-135426190D01*
X100357142Y-134902380D01*
X100642857Y-134997619D02*
X100690476Y-134950000D01*
X100785714Y-134902380D01*
X101023809Y-134902380D01*
X101119047Y-134950000D01*
X101166666Y-134997619D01*
X101214285Y-135092857D01*
X101214285Y-135188095D01*
X101166666Y-135330952D01*
X100595238Y-135902380D01*
X101214285Y-135902380D01*
X84452380Y-95833333D02*
X85166666Y-95833333D01*
X85309523Y-95880952D01*
X85404761Y-95976190D01*
X85452380Y-96119047D01*
X85452380Y-96214285D01*
X85452380Y-94833333D02*
X85452380Y-95404761D01*
X85452380Y-95119047D02*
X84452380Y-95119047D01*
X84595238Y-95214285D01*
X84690476Y-95309523D01*
X84738095Y-95404761D01*
X68083333Y-131107142D02*
X68035714Y-131154761D01*
X67892857Y-131202380D01*
X67797619Y-131202380D01*
X67654761Y-131154761D01*
X67559523Y-131059523D01*
X67511904Y-130964285D01*
X67464285Y-130773809D01*
X67464285Y-130630952D01*
X67511904Y-130440476D01*
X67559523Y-130345238D01*
X67654761Y-130250000D01*
X67797619Y-130202380D01*
X67892857Y-130202380D01*
X68035714Y-130250000D01*
X68083333Y-130297619D01*
X68940476Y-130202380D02*
X68750000Y-130202380D01*
X68654761Y-130250000D01*
X68607142Y-130297619D01*
X68511904Y-130440476D01*
X68464285Y-130630952D01*
X68464285Y-131011904D01*
X68511904Y-131107142D01*
X68559523Y-131154761D01*
X68654761Y-131202380D01*
X68845238Y-131202380D01*
X68940476Y-131154761D01*
X68988095Y-131107142D01*
X69035714Y-131011904D01*
X69035714Y-130773809D01*
X68988095Y-130678571D01*
X68940476Y-130630952D01*
X68845238Y-130583333D01*
X68654761Y-130583333D01*
X68559523Y-130630952D01*
X68511904Y-130678571D01*
X68464285Y-130773809D01*
X67963095Y-110397380D02*
X67963095Y-111206904D01*
X68010714Y-111302142D01*
X68058333Y-111349761D01*
X68153571Y-111397380D01*
X68344047Y-111397380D01*
X68439285Y-111349761D01*
X68486904Y-111302142D01*
X68534523Y-111206904D01*
X68534523Y-110397380D01*
X68963095Y-110492619D02*
X69010714Y-110445000D01*
X69105952Y-110397380D01*
X69344047Y-110397380D01*
X69439285Y-110445000D01*
X69486904Y-110492619D01*
X69534523Y-110587857D01*
X69534523Y-110683095D01*
X69486904Y-110825952D01*
X68915476Y-111397380D01*
X69534523Y-111397380D01*
X89333333Y-139702380D02*
X89000000Y-139226190D01*
X88761904Y-139702380D02*
X88761904Y-138702380D01*
X89142857Y-138702380D01*
X89238095Y-138750000D01*
X89285714Y-138797619D01*
X89333333Y-138892857D01*
X89333333Y-139035714D01*
X89285714Y-139130952D01*
X89238095Y-139178571D01*
X89142857Y-139226190D01*
X88761904Y-139226190D01*
X90190476Y-138702380D02*
X90000000Y-138702380D01*
X89904761Y-138750000D01*
X89857142Y-138797619D01*
X89761904Y-138940476D01*
X89714285Y-139130952D01*
X89714285Y-139511904D01*
X89761904Y-139607142D01*
X89809523Y-139654761D01*
X89904761Y-139702380D01*
X90095238Y-139702380D01*
X90190476Y-139654761D01*
X90238095Y-139607142D01*
X90285714Y-139511904D01*
X90285714Y-139273809D01*
X90238095Y-139178571D01*
X90190476Y-139130952D01*
X90095238Y-139083333D01*
X89904761Y-139083333D01*
X89809523Y-139130952D01*
X89761904Y-139178571D01*
X89714285Y-139273809D01*
X63833333Y-129357142D02*
X63785714Y-129404761D01*
X63642857Y-129452380D01*
X63547619Y-129452380D01*
X63404761Y-129404761D01*
X63309523Y-129309523D01*
X63261904Y-129214285D01*
X63214285Y-129023809D01*
X63214285Y-128880952D01*
X63261904Y-128690476D01*
X63309523Y-128595238D01*
X63404761Y-128500000D01*
X63547619Y-128452380D01*
X63642857Y-128452380D01*
X63785714Y-128500000D01*
X63833333Y-128547619D01*
X64404761Y-128880952D02*
X64309523Y-128833333D01*
X64261904Y-128785714D01*
X64214285Y-128690476D01*
X64214285Y-128642857D01*
X64261904Y-128547619D01*
X64309523Y-128500000D01*
X64404761Y-128452380D01*
X64595238Y-128452380D01*
X64690476Y-128500000D01*
X64738095Y-128547619D01*
X64785714Y-128642857D01*
X64785714Y-128690476D01*
X64738095Y-128785714D01*
X64690476Y-128833333D01*
X64595238Y-128880952D01*
X64404761Y-128880952D01*
X64309523Y-128928571D01*
X64261904Y-128976190D01*
X64214285Y-129071428D01*
X64214285Y-129261904D01*
X64261904Y-129357142D01*
X64309523Y-129404761D01*
X64404761Y-129452380D01*
X64595238Y-129452380D01*
X64690476Y-129404761D01*
X64738095Y-129357142D01*
X64785714Y-129261904D01*
X64785714Y-129071428D01*
X64738095Y-128976190D01*
X64690476Y-128928571D01*
X64595238Y-128880952D01*
X109177380Y-134429166D02*
X108701190Y-134762500D01*
X109177380Y-135000595D02*
X108177380Y-135000595D01*
X108177380Y-134619642D01*
X108225000Y-134524404D01*
X108272619Y-134476785D01*
X108367857Y-134429166D01*
X108510714Y-134429166D01*
X108605952Y-134476785D01*
X108653571Y-134524404D01*
X108701190Y-134619642D01*
X108701190Y-135000595D01*
X109177380Y-133476785D02*
X109177380Y-134048214D01*
X109177380Y-133762500D02*
X108177380Y-133762500D01*
X108320238Y-133857738D01*
X108415476Y-133952976D01*
X108463095Y-134048214D01*
X78833333Y-133357142D02*
X78785714Y-133404761D01*
X78642857Y-133452380D01*
X78547619Y-133452380D01*
X78404761Y-133404761D01*
X78309523Y-133309523D01*
X78261904Y-133214285D01*
X78214285Y-133023809D01*
X78214285Y-132880952D01*
X78261904Y-132690476D01*
X78309523Y-132595238D01*
X78404761Y-132500000D01*
X78547619Y-132452380D01*
X78642857Y-132452380D01*
X78785714Y-132500000D01*
X78833333Y-132547619D01*
X79309523Y-133452380D02*
X79500000Y-133452380D01*
X79595238Y-133404761D01*
X79642857Y-133357142D01*
X79738095Y-133214285D01*
X79785714Y-133023809D01*
X79785714Y-132642857D01*
X79738095Y-132547619D01*
X79690476Y-132500000D01*
X79595238Y-132452380D01*
X79404761Y-132452380D01*
X79309523Y-132500000D01*
X79261904Y-132547619D01*
X79214285Y-132642857D01*
X79214285Y-132880952D01*
X79261904Y-132976190D01*
X79309523Y-133023809D01*
X79404761Y-133071428D01*
X79595238Y-133071428D01*
X79690476Y-133023809D01*
X79738095Y-132976190D01*
X79785714Y-132880952D01*
X57058333Y-109702142D02*
X57010714Y-109749761D01*
X56867857Y-109797380D01*
X56772619Y-109797380D01*
X56629761Y-109749761D01*
X56534523Y-109654523D01*
X56486904Y-109559285D01*
X56439285Y-109368809D01*
X56439285Y-109225952D01*
X56486904Y-109035476D01*
X56534523Y-108940238D01*
X56629761Y-108845000D01*
X56772619Y-108797380D01*
X56867857Y-108797380D01*
X57010714Y-108845000D01*
X57058333Y-108892619D01*
X57439285Y-108892619D02*
X57486904Y-108845000D01*
X57582142Y-108797380D01*
X57820238Y-108797380D01*
X57915476Y-108845000D01*
X57963095Y-108892619D01*
X58010714Y-108987857D01*
X58010714Y-109083095D01*
X57963095Y-109225952D01*
X57391666Y-109797380D01*
X58010714Y-109797380D01*
X57916666Y-143452380D02*
X57916666Y-144166666D01*
X57869047Y-144309523D01*
X57773809Y-144404761D01*
X57630952Y-144452380D01*
X57535714Y-144452380D01*
X58345238Y-143547619D02*
X58392857Y-143500000D01*
X58488095Y-143452380D01*
X58726190Y-143452380D01*
X58821428Y-143500000D01*
X58869047Y-143547619D01*
X58916666Y-143642857D01*
X58916666Y-143738095D01*
X58869047Y-143880952D01*
X58297619Y-144452380D01*
X58916666Y-144452380D01*
X89404761Y-136297619D02*
X89309523Y-136250000D01*
X89214285Y-136154761D01*
X89071428Y-136011904D01*
X88976190Y-135964285D01*
X88880952Y-135964285D01*
X88928571Y-136202380D02*
X88833333Y-136154761D01*
X88738095Y-136059523D01*
X88690476Y-135869047D01*
X88690476Y-135535714D01*
X88738095Y-135345238D01*
X88833333Y-135250000D01*
X88928571Y-135202380D01*
X89119047Y-135202380D01*
X89214285Y-135250000D01*
X89309523Y-135345238D01*
X89357142Y-135535714D01*
X89357142Y-135869047D01*
X89309523Y-136059523D01*
X89214285Y-136154761D01*
X89119047Y-136202380D01*
X88928571Y-136202380D01*
X90309523Y-136202380D02*
X89738095Y-136202380D01*
X90023809Y-136202380D02*
X90023809Y-135202380D01*
X89928571Y-135345238D01*
X89833333Y-135440476D01*
X89738095Y-135488095D01*
X78833333Y-142357142D02*
X78785714Y-142404761D01*
X78642857Y-142452380D01*
X78547619Y-142452380D01*
X78404761Y-142404761D01*
X78309523Y-142309523D01*
X78261904Y-142214285D01*
X78214285Y-142023809D01*
X78214285Y-141880952D01*
X78261904Y-141690476D01*
X78309523Y-141595238D01*
X78404761Y-141500000D01*
X78547619Y-141452380D01*
X78642857Y-141452380D01*
X78785714Y-141500000D01*
X78833333Y-141547619D01*
X79166666Y-141452380D02*
X79833333Y-141452380D01*
X79404761Y-142452380D01*
X78394642Y-129357142D02*
X78347023Y-129404761D01*
X78204166Y-129452380D01*
X78108928Y-129452380D01*
X77966071Y-129404761D01*
X77870833Y-129309523D01*
X77823214Y-129214285D01*
X77775595Y-129023809D01*
X77775595Y-128880952D01*
X77823214Y-128690476D01*
X77870833Y-128595238D01*
X77966071Y-128500000D01*
X78108928Y-128452380D01*
X78204166Y-128452380D01*
X78347023Y-128500000D01*
X78394642Y-128547619D01*
X79347023Y-129452380D02*
X78775595Y-129452380D01*
X79061309Y-129452380D02*
X79061309Y-128452380D01*
X78966071Y-128595238D01*
X78870833Y-128690476D01*
X78775595Y-128738095D01*
X79966071Y-128452380D02*
X80061309Y-128452380D01*
X80156547Y-128500000D01*
X80204166Y-128547619D01*
X80251785Y-128642857D01*
X80299404Y-128833333D01*
X80299404Y-129071428D01*
X80251785Y-129261904D01*
X80204166Y-129357142D01*
X80156547Y-129404761D01*
X80061309Y-129452380D01*
X79966071Y-129452380D01*
X79870833Y-129404761D01*
X79823214Y-129357142D01*
X79775595Y-129261904D01*
X79727976Y-129071428D01*
X79727976Y-128833333D01*
X79775595Y-128642857D01*
X79823214Y-128547619D01*
X79870833Y-128500000D01*
X79966071Y-128452380D01*
X78833333Y-118952380D02*
X78500000Y-118476190D01*
X78261904Y-118952380D02*
X78261904Y-117952380D01*
X78642857Y-117952380D01*
X78738095Y-118000000D01*
X78785714Y-118047619D01*
X78833333Y-118142857D01*
X78833333Y-118285714D01*
X78785714Y-118380952D01*
X78738095Y-118428571D01*
X78642857Y-118476190D01*
X78261904Y-118476190D01*
X79690476Y-118285714D02*
X79690476Y-118952380D01*
X79452380Y-117904761D02*
X79214285Y-118619047D01*
X79833333Y-118619047D01*
X65166666Y-143452380D02*
X65166666Y-144166666D01*
X65119047Y-144309523D01*
X65023809Y-144404761D01*
X64880952Y-144452380D01*
X64785714Y-144452380D01*
X65547619Y-143452380D02*
X66166666Y-143452380D01*
X65833333Y-143833333D01*
X65976190Y-143833333D01*
X66071428Y-143880952D01*
X66119047Y-143928571D01*
X66166666Y-144023809D01*
X66166666Y-144261904D01*
X66119047Y-144357142D01*
X66071428Y-144404761D01*
X65976190Y-144452380D01*
X65690476Y-144452380D01*
X65595238Y-144404761D01*
X65547619Y-144357142D01*
X109177380Y-138000595D02*
X108177380Y-138000595D01*
X108177380Y-137762500D01*
X108225000Y-137619642D01*
X108320238Y-137524404D01*
X108415476Y-137476785D01*
X108605952Y-137429166D01*
X108748809Y-137429166D01*
X108939285Y-137476785D01*
X109034523Y-137524404D01*
X109129761Y-137619642D01*
X109177380Y-137762500D01*
X109177380Y-138000595D01*
X109177380Y-136476785D02*
X109177380Y-137048214D01*
X109177380Y-136762500D02*
X108177380Y-136762500D01*
X108320238Y-136857738D01*
X108415476Y-136952976D01*
X108463095Y-137048214D01*
X57058333Y-113702142D02*
X57010714Y-113749761D01*
X56867857Y-113797380D01*
X56772619Y-113797380D01*
X56629761Y-113749761D01*
X56534523Y-113654523D01*
X56486904Y-113559285D01*
X56439285Y-113368809D01*
X56439285Y-113225952D01*
X56486904Y-113035476D01*
X56534523Y-112940238D01*
X56629761Y-112845000D01*
X56772619Y-112797380D01*
X56867857Y-112797380D01*
X57010714Y-112845000D01*
X57058333Y-112892619D01*
X57391666Y-112797380D02*
X58010714Y-112797380D01*
X57677380Y-113178333D01*
X57820238Y-113178333D01*
X57915476Y-113225952D01*
X57963095Y-113273571D01*
X58010714Y-113368809D01*
X58010714Y-113606904D01*
X57963095Y-113702142D01*
X57915476Y-113749761D01*
X57820238Y-113797380D01*
X57534523Y-113797380D01*
X57439285Y-113749761D01*
X57391666Y-113702142D01*
X106238095Y-93452380D02*
X106238095Y-94261904D01*
X106285714Y-94357142D01*
X106333333Y-94404761D01*
X106428571Y-94452380D01*
X106619047Y-94452380D01*
X106714285Y-94404761D01*
X106761904Y-94357142D01*
X106809523Y-94261904D01*
X106809523Y-93452380D01*
X107809523Y-94452380D02*
X107238095Y-94452380D01*
X107523809Y-94452380D02*
X107523809Y-93452380D01*
X107428571Y-93595238D01*
X107333333Y-93690476D01*
X107238095Y-93738095D01*
X79238095Y-136452380D02*
X79238095Y-137261904D01*
X79285714Y-137357142D01*
X79333333Y-137404761D01*
X79428571Y-137452380D01*
X79619047Y-137452380D01*
X79714285Y-137404761D01*
X79761904Y-137357142D01*
X79809523Y-137261904D01*
X79809523Y-136452380D01*
X80714285Y-136452380D02*
X80523809Y-136452380D01*
X80428571Y-136500000D01*
X80380952Y-136547619D01*
X80285714Y-136690476D01*
X80238095Y-136880952D01*
X80238095Y-137261904D01*
X80285714Y-137357142D01*
X80333333Y-137404761D01*
X80428571Y-137452380D01*
X80619047Y-137452380D01*
X80714285Y-137404761D01*
X80761904Y-137357142D01*
X80809523Y-137261904D01*
X80809523Y-137023809D01*
X80761904Y-136928571D01*
X80714285Y-136880952D01*
X80619047Y-136833333D01*
X80428571Y-136833333D01*
X80333333Y-136880952D01*
X80285714Y-136928571D01*
X80238095Y-137023809D01*
X76833333Y-113452380D02*
X76500000Y-112976190D01*
X76261904Y-113452380D02*
X76261904Y-112452380D01*
X76642857Y-112452380D01*
X76738095Y-112500000D01*
X76785714Y-112547619D01*
X76833333Y-112642857D01*
X76833333Y-112785714D01*
X76785714Y-112880952D01*
X76738095Y-112928571D01*
X76642857Y-112976190D01*
X76261904Y-112976190D01*
X77166666Y-112452380D02*
X77785714Y-112452380D01*
X77452380Y-112833333D01*
X77595238Y-112833333D01*
X77690476Y-112880952D01*
X77738095Y-112928571D01*
X77785714Y-113023809D01*
X77785714Y-113261904D01*
X77738095Y-113357142D01*
X77690476Y-113404761D01*
X77595238Y-113452380D01*
X77309523Y-113452380D01*
X77214285Y-113404761D01*
X77166666Y-113357142D01*
X89333333Y-133357142D02*
X89285714Y-133404761D01*
X89142857Y-133452380D01*
X89047619Y-133452380D01*
X88904761Y-133404761D01*
X88809523Y-133309523D01*
X88761904Y-133214285D01*
X88714285Y-133023809D01*
X88714285Y-132880952D01*
X88761904Y-132690476D01*
X88809523Y-132595238D01*
X88904761Y-132500000D01*
X89047619Y-132452380D01*
X89142857Y-132452380D01*
X89285714Y-132500000D01*
X89333333Y-132547619D01*
X90238095Y-132452380D02*
X89761904Y-132452380D01*
X89714285Y-132928571D01*
X89761904Y-132880952D01*
X89857142Y-132833333D01*
X90095238Y-132833333D01*
X90190476Y-132880952D01*
X90238095Y-132928571D01*
X90285714Y-133023809D01*
X90285714Y-133261904D01*
X90238095Y-133357142D01*
X90190476Y-133404761D01*
X90095238Y-133452380D01*
X89857142Y-133452380D01*
X89761904Y-133404761D01*
X89714285Y-133357142D01*
X61773809Y-109821190D02*
X61773809Y-110297380D01*
X61440476Y-109297380D02*
X61773809Y-109821190D01*
X62107142Y-109297380D01*
X62964285Y-110297380D02*
X62392857Y-110297380D01*
X62678571Y-110297380D02*
X62678571Y-109297380D01*
X62583333Y-109440238D01*
X62488095Y-109535476D01*
X62392857Y-109583095D01*
X97083333Y-114677142D02*
X97035714Y-114724761D01*
X96892857Y-114772380D01*
X96797619Y-114772380D01*
X96654761Y-114724761D01*
X96559523Y-114629523D01*
X96511904Y-114534285D01*
X96464285Y-114343809D01*
X96464285Y-114200952D01*
X96511904Y-114010476D01*
X96559523Y-113915238D01*
X96654761Y-113820000D01*
X96797619Y-113772380D01*
X96892857Y-113772380D01*
X97035714Y-113820000D01*
X97083333Y-113867619D01*
X97940476Y-114105714D02*
X97940476Y-114772380D01*
X97702380Y-113724761D02*
X97464285Y-114439047D01*
X98083333Y-114439047D01*
X70583333Y-131202380D02*
X70250000Y-130726190D01*
X70011904Y-131202380D02*
X70011904Y-130202380D01*
X70392857Y-130202380D01*
X70488095Y-130250000D01*
X70535714Y-130297619D01*
X70583333Y-130392857D01*
X70583333Y-130535714D01*
X70535714Y-130630952D01*
X70488095Y-130678571D01*
X70392857Y-130726190D01*
X70011904Y-130726190D01*
X70964285Y-130297619D02*
X71011904Y-130250000D01*
X71107142Y-130202380D01*
X71345238Y-130202380D01*
X71440476Y-130250000D01*
X71488095Y-130297619D01*
X71535714Y-130392857D01*
X71535714Y-130488095D01*
X71488095Y-130630952D01*
X70916666Y-131202380D01*
X71535714Y-131202380D01*
X95833333Y-132452380D02*
X95500000Y-131976190D01*
X95261904Y-132452380D02*
X95261904Y-131452380D01*
X95642857Y-131452380D01*
X95738095Y-131500000D01*
X95785714Y-131547619D01*
X95833333Y-131642857D01*
X95833333Y-131785714D01*
X95785714Y-131880952D01*
X95738095Y-131928571D01*
X95642857Y-131976190D01*
X95261904Y-131976190D01*
X96738095Y-131452380D02*
X96261904Y-131452380D01*
X96214285Y-131928571D01*
X96261904Y-131880952D01*
X96357142Y-131833333D01*
X96595238Y-131833333D01*
X96690476Y-131880952D01*
X96738095Y-131928571D01*
X96785714Y-132023809D01*
X96785714Y-132261904D01*
X96738095Y-132357142D01*
X96690476Y-132404761D01*
X96595238Y-132452380D01*
X96357142Y-132452380D01*
X96261904Y-132404761D01*
X96214285Y-132357142D01*
D12*
X92727064Y-142485000D02*
X92272936Y-142485000D01*
X92727064Y-141015000D02*
X92272936Y-141015000D01*
X70515000Y-109511252D02*
X70515000Y-108988748D01*
X71985000Y-109511252D02*
X71985000Y-108988748D01*
D11*
X101625000Y-127625000D02*
X101625000Y-127300000D01*
X94375000Y-127625000D02*
X94600000Y-127625000D01*
X101625000Y-120375000D02*
X101300000Y-120375000D01*
X101625000Y-120375000D02*
X101625000Y-120700000D01*
X94375000Y-127625000D02*
X94375000Y-127300000D01*
X101625000Y-127625000D02*
X101300000Y-127625000D01*
X94600000Y-127625000D02*
X94600000Y-129050000D01*
X94375000Y-120375000D02*
X94700000Y-120375000D01*
X94375000Y-120375000D02*
X94375000Y-120700000D01*
D12*
X98700000Y-134200000D02*
X98850000Y-134200000D01*
X102300000Y-134200000D02*
X102150000Y-134200000D01*
X101250000Y-131800000D02*
X101300000Y-131800000D01*
X101250000Y-131800000D02*
X101250000Y-131400000D01*
X102300000Y-132200000D02*
X102300000Y-131800000D01*
X102300000Y-132200000D02*
X102300000Y-134200000D01*
X102500000Y-132200000D02*
X102500000Y-131800000D01*
X102500000Y-134200000D02*
X102500000Y-132200000D01*
X98700000Y-134200000D02*
X98700000Y-132200000D01*
X102300000Y-131800000D02*
X102150000Y-131800000D01*
X98700000Y-131800000D02*
X98850000Y-131800000D01*
X98700000Y-132200000D02*
X98700000Y-131800000D01*
X80000000Y-97000000D02*
X80000000Y-96200000D01*
X80000000Y-94000000D02*
X80200000Y-94000000D01*
X83000000Y-94000000D02*
X83000000Y-94800000D01*
X80200000Y-97000000D02*
X80000000Y-97000000D01*
X83000000Y-96800000D02*
X82800000Y-97000000D01*
X82800000Y-94000000D02*
X83000000Y-94000000D01*
X80000000Y-94800000D02*
X80000000Y-94000000D01*
X83000000Y-96200000D02*
X83000000Y-96800000D01*
X83000000Y-96200000D02*
X83500000Y-96200000D01*
X83000000Y-94800000D02*
X83500000Y-94800000D01*
X67515000Y-127738748D02*
X67515000Y-128261252D01*
X68985000Y-127738748D02*
X68985000Y-128261252D01*
X68725000Y-116905000D02*
X70675000Y-116905000D01*
X68725000Y-111785000D02*
X65275000Y-111785000D01*
X68725000Y-116905000D02*
X66775000Y-116905000D01*
X68725000Y-111785000D02*
X70675000Y-111785000D01*
X92272936Y-139985000D02*
X92727064Y-139985000D01*
X92272936Y-138515000D02*
X92727064Y-138515000D01*
X63488748Y-126265000D02*
X64011252Y-126265000D01*
X63488748Y-127735000D02*
X64011252Y-127735000D01*
X106452064Y-134997500D02*
X105997936Y-134997500D01*
X106452064Y-133527500D02*
X105997936Y-133527500D01*
X76261252Y-133735000D02*
X75738748Y-133735000D01*
X76261252Y-132265000D02*
X75738748Y-132265000D01*
X58486252Y-112080000D02*
X57963748Y-112080000D01*
X58486252Y-110610000D02*
X57963748Y-110610000D01*
X63250000Y-141800000D02*
X63250000Y-138750000D01*
X58050000Y-142550000D02*
X58800000Y-142550000D01*
X58050000Y-134950000D02*
X58050000Y-136750000D01*
X64010000Y-142560000D02*
X64010000Y-134940000D01*
X58040000Y-142560000D02*
X64010000Y-142560000D01*
X57750000Y-142850000D02*
X59000000Y-142850000D01*
X58800000Y-136750000D02*
X58800000Y-134950000D01*
X58040000Y-134940000D02*
X58040000Y-142560000D01*
X60300000Y-142550000D02*
X60300000Y-141800000D01*
X58050000Y-140750000D02*
X58050000Y-142550000D01*
X58800000Y-138250000D02*
X58050000Y-138250000D01*
X64010000Y-134940000D02*
X58040000Y-134940000D01*
X58050000Y-138250000D02*
X58050000Y-139250000D01*
X58050000Y-136750000D02*
X58800000Y-136750000D01*
X58800000Y-142550000D02*
X58800000Y-140750000D01*
X60300000Y-141800000D02*
X63250000Y-141800000D01*
X57750000Y-141600000D02*
X57750000Y-142850000D01*
X58800000Y-140750000D02*
X58050000Y-140750000D01*
X58800000Y-134950000D02*
X58050000Y-134950000D01*
X58800000Y-139250000D02*
X58800000Y-138250000D01*
X63250000Y-135700000D02*
X63250000Y-138750000D01*
X58050000Y-139250000D02*
X58800000Y-139250000D01*
X60300000Y-135700000D02*
X63250000Y-135700000D01*
X60300000Y-134950000D02*
X60300000Y-135700000D01*
X92500000Y-137310000D02*
X93150000Y-137310000D01*
X92500000Y-134190000D02*
X93150000Y-134190000D01*
X92500000Y-134190000D02*
X90825000Y-134190000D01*
X92500000Y-137310000D02*
X91850000Y-137310000D01*
X75738748Y-142735000D02*
X76261252Y-142735000D01*
X75738748Y-141265000D02*
X76261252Y-141265000D01*
X76261252Y-129735000D02*
X75738748Y-129735000D01*
X76261252Y-128265000D02*
X75738748Y-128265000D01*
X77735000Y-117477064D02*
X77735000Y-117022936D01*
X76265000Y-117477064D02*
X76265000Y-117022936D01*
X65040000Y-142560000D02*
X71010000Y-142560000D01*
X65800000Y-138250000D02*
X65050000Y-138250000D01*
X70250000Y-141800000D02*
X70250000Y-138750000D01*
X64750000Y-142850000D02*
X66000000Y-142850000D01*
X64750000Y-141600000D02*
X64750000Y-142850000D01*
X65050000Y-136750000D02*
X65800000Y-136750000D01*
X71010000Y-142560000D02*
X71010000Y-134940000D01*
X67300000Y-135700000D02*
X70250000Y-135700000D01*
X65050000Y-138250000D02*
X65050000Y-139250000D01*
X65800000Y-142550000D02*
X65800000Y-140750000D01*
X65800000Y-134950000D02*
X65050000Y-134950000D01*
X71010000Y-134940000D02*
X65040000Y-134940000D01*
X65040000Y-134940000D02*
X65040000Y-142560000D01*
X67300000Y-134950000D02*
X67300000Y-135700000D01*
X67300000Y-141800000D02*
X70250000Y-141800000D01*
X65050000Y-134950000D02*
X65050000Y-136750000D01*
X67300000Y-142550000D02*
X67300000Y-141800000D01*
X65050000Y-139250000D02*
X65800000Y-139250000D01*
X65050000Y-140750000D02*
X65050000Y-142550000D01*
X70250000Y-135700000D02*
X70250000Y-138750000D01*
X65800000Y-139250000D02*
X65800000Y-138250000D01*
X65050000Y-142550000D02*
X65800000Y-142550000D01*
X65800000Y-140750000D02*
X65050000Y-140750000D01*
X65800000Y-136750000D02*
X65800000Y-134950000D01*
X107225000Y-136302500D02*
X104365000Y-136302500D01*
X104365000Y-138222500D02*
X107225000Y-138222500D01*
X104365000Y-136302500D02*
X104365000Y-138222500D01*
X58486252Y-116080000D02*
X57963748Y-116080000D01*
X58486252Y-114610000D02*
X57963748Y-114610000D01*
X87900000Y-93150000D02*
X87900000Y-93550000D01*
X87900000Y-109350000D02*
X87900000Y-108950000D01*
X104100000Y-93150000D02*
X87900000Y-93150000D01*
X104100000Y-93550000D02*
X104100000Y-93150000D01*
X104100000Y-109000000D02*
X105000000Y-109000000D01*
X104100000Y-109350000D02*
X87900000Y-109350000D01*
X104100000Y-109350000D02*
X104100000Y-109000000D01*
X76760000Y-138580000D02*
X76760000Y-137650000D01*
X76760000Y-138580000D02*
X75300000Y-138580000D01*
X76760000Y-135420000D02*
X73600000Y-135420000D01*
X76760000Y-135420000D02*
X76760000Y-136350000D01*
X75485000Y-114227064D02*
X75485000Y-113772936D01*
X74015000Y-114227064D02*
X74015000Y-113772936D01*
X92235000Y-131488748D02*
X92235000Y-132011252D01*
X90765000Y-131488748D02*
X90765000Y-132011252D01*
X61350000Y-116045000D02*
X63150000Y-116045000D01*
X61300000Y-113895000D02*
X61300000Y-112795000D01*
X63200000Y-113895000D02*
X63200000Y-112795000D01*
X96988748Y-115265000D02*
X97511252Y-115265000D01*
X96988748Y-116735000D02*
X97511252Y-116735000D01*
X71485000Y-127772936D02*
X71485000Y-128227064D01*
X70015000Y-127772936D02*
X70015000Y-128227064D01*
X96735000Y-134977064D02*
X96735000Y-134522936D01*
X95265000Y-134977064D02*
X95265000Y-134522936D01*
M02*
